<?xml version="1.0" encoding="UTF-8" standalone="no"?>
<!-- Created with Inkscape (http://www.inkscape.org/) -->

<svg
   xmlns:dc="http://purl.org/dc/elements/1.1/"
   xmlns:cc="http://creativecommons.org/ns#"
   xmlns:rdf="http://www.w3.org/1999/02/22-rdf-syntax-ns#"
   xmlns:svg="http://www.w3.org/2000/svg"
   xmlns="http://www.w3.org/2000/svg"
   version="1.1"
   width="356.07422"
   height="70.767578"
   id="svg2">
  <defs
     id="defs4" />
  <metadata
     id="metadata7">
    <rdf:RDF>
      <cc:Work
         rdf:about="">
        <dc:format>image/svg+xml</dc:format>
        <dc:type
           rdf:resource="http://purl.org/dc/dcmitype/StillImage" />
        <dc:title></dc:title>
      </cc:Work>
    </rdf:RDF>
  </metadata>
  <g
     transform="translate(-120.93722,-293.26007)"
     id="layer1">
    <g
       id="text2985"
       style="font-size:40px;font-style:normal;font-weight:normal;line-height:125%;letter-spacing:0px;word-spacing:0px;fill:#000000;fill-opacity:1;stroke:none;font-family:Sans">
      <path
         d="m 155.68917,344.38116 c -1.70706,1.27996 -3.48864,2.2077 -5.34473,2.78321 -1.85614,0.57553 -3.70152,0.73536 -5.53613,0.47949 -1.83465,-0.25585 -3.41278,-1.04524 -4.73437,-2.36816 -1.19533,3.79818 -2.00653,7.55339 -2.4336,11.26562 -0.17058,0.68229 -0.46876,1.30078 -0.89453,1.85547 -0.76824,2.26172 -2.45379,3.77604 -5.05664,4.54297 -2.5599,0.72525 -4.94922,0.59765 -7.16797,-0.38281 -1.02344,-0.47006 -1.87663,-1.153 -2.55957,-2.04883 -0.68294,-0.89584 -1.02441,-1.98373 -1.02441,-3.26367 2.94401,-10.19791 5.78124,-18.56053 8.51172,-25.08789 0.59765,-1.36586 1.07779,-2.47524 1.44043,-3.32813 0.36262,-0.85283 0.69335,-1.57809 0.99218,-2.17578 0.29882,-0.59763 0.56542,-1.12041 0.79981,-1.56836 0.23436,-0.44788 0.52212,-0.94919 0.86328,-1.50391 0.76822,-1.27991 1.65363,-2.78381 2.65625,-4.51172 1.00259,-1.72782 1.8561,-3.01851 2.56055,-3.87207 0.70441,-0.85347 1.45115,-1.58947 2.24023,-2.208 0.78904,-0.61845 1.66339,-1.20504 2.62305,-1.75977 0.95961,-0.55464 2.16501,-1.2799 3.61621,-2.17578 1.45114,-0.89578 2.99802,-1.43973 4.64062,-1.63184 1.64255,-0.192 3.21058,-0.0537 4.70411,0.41504 3.15751,0.98182 5.48238,3.17909 6.9746,6.5918 1.27991,3.15759 1.49345,7.40303 0.64063,12.73633 -1.32296,8.14976 -4.16019,13.88869 -8.51172,17.21679 z m -13.37695,-5.69726 c 3.49867,-0.76821 5.93096,-3.05076 7.29687,-6.84766 1.15232,-3.19919 1.38669,-6.82549 0.70313,-10.8789 -0.9805,1.66409 -1.86559,3.39196 -2.65528,5.18359 -0.78973,1.7917 -1.50425,3.3913 -2.14355,4.79883 -1.40757,3.15757 -2.47463,5.73895 -3.20117,7.74414 z"
         id="path2990"
         style="font-size:64px;font-variant:normal;font-stretch:normal;fill:#ff00ff;font-family:Knewave;-inkscape-font-specification:Knewave" />
      <path
         d="m 199.04855,314.6839 c 1.45048,0.76827 2.36779,1.89913 2.75195,3.39258 -0.85421,4.77868 -1.62244,9.52542 -2.30469,14.24023 -0.68233,4.71487 -1.34346,8.66148 -1.9834,11.83985 -0.64001,3.17839 -1.07751,5.55697 -1.3125,7.13574 -0.23506,1.57878 -0.50166,3.15723 -0.7998,4.73535 l -0.38477,1.3457 c -0.0847,0.46875 -0.16963,0.90593 -0.25488,1.31153 -0.0853,0.40559 -0.17093,0.84277 -0.25684,1.31152 -1.19404,1.36588 -2.81513,2.04882 -4.86328,2.04883 -2.1758,-1e-5 -3.90367,-0.55469 -5.18359,-1.66407 -0.76825,-0.59765 -0.89651,-1.85677 -0.38477,-3.77734 0.21352,-0.76692 0.35219,-1.75846 0.41602,-2.97461 0.0638,-1.21614 0.13865,-2.22981 0.22461,-3.04101 l 0,-0.12696 c -1.27997,0.46876 -2.43199,1.07651 -3.45606,1.82324 -1.0241,0.74675 -1.66408,1.21616 -1.91992,1.40821 -0.25588,0.19206 -0.59735,0.34147 -1.02441,0.44824 -0.4271,0.10677 -0.81122,0.18099 -1.15235,0.22266 -0.81121,0.043 -1.3659,0.17122 -1.66406,0.38476 -2.47397,4.4375 -4.69272,6.91211 -6.65625,7.42383 -1.23698,0.38411 -2.47429,0.48014 -3.71191,0.28809 -1.23764,-0.19207 -2.21908,-0.92807 -2.94434,-2.20801 -1.36458,-1.27995 -1.02278,-4.77864 1.02539,-10.4961 1.10937,-3.02863 2.69857,-6.66567 4.76758,-10.91113 2.069,-4.24542 4.06379,-7.94691 5.98438,-11.10449 4.138,-6.78382 8.68161,-12.50126 13.63085,-17.15234 0.81118,-0.3411 1.68617,-0.73563 2.625,-1.1836 0.93878,-0.44787 1.86684,-0.69331 2.78418,-0.73633 0.91729,-0.0429 1.86651,0.0639 2.84766,0.32032 0.98109,0.25656 1.81279,0.64067 2.49512,1.15234 1.57939,1.19406 1.81441,2.70838 0.70508,4.54297 z m -13.69727,16.83203 c -0.89586,2.55992 -1.79169,4.91734 -2.6875,7.07227 -0.89585,2.15496 -1.66408,4.04298 -2.30469,5.66406 l 5.05664,-0.19141 c 0.34113,-2.73045 0.72524,-5.43976 1.15235,-8.12793 0.42706,-2.68812 0.83265,-5.37595 1.21679,-8.06347 z m -1.72656,12.80078 c 0.59633,2e-5 1.19333,-0.043 1.79101,-0.1289 l 0,-0.0625 c -0.55471,0.0417 -1.06675,0.084 -1.53613,0.12695 -0.46942,0.043 -0.55438,0.0645 -0.25488,0.0645 z m 7.34179,-49.9043 c 1.36456,-0.55462 2.70831,-0.93873 4.03125,-1.15234 1.23695,0.0847 2.53838,0.12702 3.9043,0.12695 1.36585,7e-5 2.81669,0.3627 4.35254,1.08789 1.53576,0.72533 2.83687,1.76016 3.90332,3.1045 1.06636,1.34446 1.70633,2.78423 1.91992,4.31933 0.38407,3.32818 -1.02413,6.37896 -4.22461,9.15235 -1.40759,1.15239 -3.49808,2.02739 -6.27148,2.625 -2.17582,0.46879 -4.30895,0.63936 -6.39942,0.51172 -2.09052,-0.12756 -3.60517,-0.26624 -4.54394,-0.41602 -0.93883,-0.1497 -1.58954,-0.33134 -1.95215,-0.54492 -0.36265,-0.2135 -0.73602,-0.43746 -1.12012,-0.67188 -0.38413,-0.23433 -0.74676,-0.4368 -1.08789,-0.60742 -2.55991,-1.57808 -3.73309,-3.94591 -3.51953,-7.10351 0.17056,-2.68875 1.15168,-5.01427 2.94336,-6.97657 0.6393,-0.7252 1.22589,-1.17311 1.75977,-1.34375 0.53383,-0.17051 1.4085,-0.5224 2.62402,-1.05566 1.21547,-0.53314 2.44236,-0.88503 3.68066,-1.05567 z m 6.4004,9.72657 c -0.7266,0.17062 -1.77217,0.32036 -3.13672,0.44922 -0.29821,-0.0859 -0.682,-0.12886 -1.15137,-0.12891 -0.46943,5e-5 -0.91767,-0.0214 -1.34473,-0.0645 -0.9818,1.15239 -1.28063,2.21945 -0.89648,3.20117 0.12757,0.34119 0.42608,0.6397 0.89551,0.89551 0.46937,0.2559 1.07744,0.33045 1.82421,0.22363 0.74672,-0.10672 1.4404,-0.35216 2.08106,-0.73633 1.45048,-0.89578 2.04749,-2.06896 1.79102,-3.51953 -0.0417,-0.0429 -0.0625,-0.14969 -0.0625,-0.32031 z"
         id="path2992"
         style="font-size:64px;font-variant:normal;font-stretch:normal;fill:#ff00ff;font-family:Knewave;-inkscape-font-specification:Knewave" />
      <path
         d="m 228.80245,361.78937 c -2.17579,0.0846 -4.17025,-0.1823 -5.9834,-0.80078 -1.81315,-0.6185 -3.28515,-1.46127 -4.41601,-2.52832 -1.13086,-1.06706 -1.84538,-2.31511 -2.14356,-3.74414 -0.29817,-1.42904 -0.0423,-2.8903 0.76758,-4.38379 1.10938,-1.79166 3.32812,-2.32486 6.65625,-1.59961 2.51692,0.51172 4.25553,0.78907 5.21582,0.83203 0.96028,0.043 1.78156,-0.0853 2.46387,-0.38477 3.11457,-1.02342 4.86391,-2.1328 5.24805,-3.32812 0.25649,-0.89582 -0.2982,-1.94074 -1.66407,-3.13477 -0.5547,-0.513 -1.17319,-1.02537 -1.85547,-1.53711 -0.6823,-0.5117 -1.25847,-1.02342 -1.72851,-1.53515 -2.13283,-1.57941 -3.8073,-3.40363 -5.02344,-5.47266 -1.21615,-2.06898 -1.71745,-4.31963 -1.5039,-6.75195 0.21353,-2.43226 0.6188,-4.44821 1.21582,-6.04785 0.59699,-1.59958 1.34341,-3.01852 2.23925,-4.25684 1.57942,-2.17574 3.62759,-3.94592 6.14453,-5.31055 2.90103,-1.49344 5.22655,-2.45372 6.97657,-2.88086 3.4557,-0.76818 6.95439,-0.83198 10.49609,-0.1914 1.19398,0.21359 2.21774,0.61886 3.07129,1.21582 0.85348,0.59705 1.70667,1.21586 2.55957,1.85644 1.49345,1.49354 1.85608,3.00786 1.08789,4.54297 -0.29822,0.68364 -0.76729,1.23865 -1.40723,1.66504 -0.64001,0.42647 -1.32263,0.66117 -2.04785,0.7041 0.0846,1.15108 -0.12894,2.00395 -0.64062,2.5586 -0.98051,0.9818 -2.68689,1.62178 -5.11914,1.91992 -3.49873,-0.25518 -5.86657,-0.0631 -7.10352,0.57617 -1.45184,0.76826 -1.9857,2.43232 -1.60156,4.99219 0.0859,0.55471 0.43813,1.13088 1.05664,1.72851 0.61846,0.59769 1.34372,1.23766 2.17578,1.91992 0.83201,0.68232 1.70668,1.45022 2.62402,2.30372 0.91729,0.85353 1.7171,1.83498 2.39942,2.94433 2.38929,3.9258 2.19723,8.51238 -0.57617,13.75977 -2.04691,3.92578 -5.54495,6.86979 -10.49414,8.83203 -2.56122,1.02473 -5.59116,1.5371 -9.08985,1.53711 z"
         id="path2994"
         style="font-size:64px;font-variant:normal;font-stretch:normal;fill:#ff00ff;font-family:Knewave;-inkscape-font-specification:Knewave" />
      <path
         d="m 285.93917,344.38116 c -1.70706,1.27996 -3.48864,2.2077 -5.34473,2.78321 -1.85614,0.57553 -3.70152,0.73536 -5.53613,0.47949 -1.83465,-0.25585 -3.41278,-1.04524 -4.73437,-2.36816 -1.19533,3.79818 -2.00653,7.55339 -2.4336,11.26562 -0.17058,0.68229 -0.46876,1.30078 -0.89453,1.85547 -0.76824,2.26172 -2.45379,3.77604 -5.05664,4.54297 -2.5599,0.72525 -4.94922,0.59765 -7.16797,-0.38281 -1.02344,-0.47006 -1.87663,-1.153 -2.55957,-2.04883 -0.68294,-0.89584 -1.02441,-1.98373 -1.02441,-3.26367 2.94401,-10.19791 5.78124,-18.56053 8.51172,-25.08789 0.59765,-1.36586 1.07779,-2.47524 1.44043,-3.32813 0.36262,-0.85283 0.69335,-1.57809 0.99218,-2.17578 0.29882,-0.59763 0.56542,-1.12041 0.79981,-1.56836 0.23436,-0.44788 0.52212,-0.94919 0.86328,-1.50391 0.76822,-1.27991 1.65363,-2.78381 2.65625,-4.51172 1.00259,-1.72782 1.8561,-3.01851 2.56055,-3.87207 0.70441,-0.85347 1.45115,-1.58947 2.24023,-2.208 0.78904,-0.61845 1.66339,-1.20504 2.62305,-1.75977 0.95961,-0.55464 2.16501,-1.2799 3.61621,-2.17578 1.45114,-0.89578 2.99802,-1.43973 4.64062,-1.63184 1.64255,-0.192 3.21058,-0.0537 4.70411,0.41504 3.15751,0.98182 5.48238,3.17909 6.9746,6.5918 1.27991,3.15759 1.49345,7.40303 0.64063,12.73633 -1.32296,8.14976 -4.16019,13.88869 -8.51172,17.21679 z m -13.37695,-5.69726 c 3.49867,-0.76821 5.93096,-3.05076 7.29687,-6.84766 1.15232,-3.19919 1.38669,-6.82549 0.70313,-10.8789 -0.9805,1.66409 -1.86559,3.39196 -2.65528,5.18359 -0.78973,1.7917 -1.50425,3.3913 -2.14355,4.79883 -1.40757,3.15757 -2.47463,5.73895 -3.20117,7.74414 z"
         id="path2996"
         style="font-size:64px;font-variant:normal;font-stretch:normal;fill:#ff00ff;font-family:Knewave;-inkscape-font-specification:Knewave" />
      <path
         d="m 308.56222,315.70929 c 2.68748,-3.07287 5.6738,-4.99344 8.95898,-5.76172 2.26169,-0.55464 4.39515,-0.4687 6.40039,0.25781 1.5794,-1.66401 3.62757,-2.26167 6.14453,-1.79297 2.30335,0.42714 4.26624,1.72857 5.88868,3.9043 0.0846,0.29822 0.26558,0.74614 0.54296,1.34375 0.2773,0.5977 0.54423,1.25916 0.80079,1.98438 1.87755,4.3516 2.02664,10.06904 0.44726,17.15234 -1.96228,8.78908 -5.43949,16.23438 -10.43164,22.33594 -1.53649,1.8763 -3.26435,3.43359 -5.18359,4.67187 -3.07295,2.34635 -6.74221,3.39127 -11.00782,3.13477 -2.64585,-0.12761 -4.86459,-0.78842 -6.65625,-1.98242 -7.1263,-3.54167 -9.45182,-10.92317 -6.97656,-22.14453 2.04817,-9.21612 5.73892,-16.91729 11.07227,-23.10352 z m 0.76758,33.98242 -0.0645,0.38477 0.12891,0.70312 c 0.25519,1.32292 0.68162,2.3366 1.2793,3.04102 0.59763,0.70443 1.08852,1.14193 1.47265,1.3125 0.42706,-0.34114 0.85382,-0.66113 1.28028,-0.95996 0.42641,-0.29883 0.81019,-0.66178 1.15136,-1.08887 2.90102,-3.58333 5.16241,-8.27635 6.78418,-14.0791 1.62172,-5.80271 2.21905,-11.17868 1.79199,-16.12793 -1.66409,2.13284 -3.41343,4.58597 -5.24804,7.35937 -1.83466,2.77347 -3.28518,5.1413 -4.35156,7.10352 -2.43232,4.56512 -3.84052,8.6823 -4.22461,12.35156 z"
         id="path2998"
         style="font-size:64px;font-variant:normal;font-stretch:normal;fill:#ff00ff;font-family:Knewave;-inkscape-font-specification:Knewave" />
      <path
         d="m 357.08566,341.66046 c -1.17321,3.34897 -2.35712,6.55958 -3.55176,9.63184 -1.19468,3.07227 -2.18687,5.4082 -2.97657,7.00781 -0.78973,1.59961 -1.48308,2.69824 -2.08007,3.2959 -0.59702,0.59765 -1.2051,1.00325 -1.82422,1.2168 -0.61916,0.21353 -1.23797,0.29882 -1.85645,0.25585 -0.6185,-0.043 -1.2474,-0.0859 -1.88672,-0.1289 -3.58464,-0.55469 -4.69401,-3.13607 -3.32812,-7.74414 0.89582,-3.66927 1.62108,-6.66633 2.17578,-8.99121 0.55468,-2.32486 1.01334,-4.24478 1.37598,-5.75977 0.36262,-1.51495 0.67186,-2.77374 0.92773,-3.77637 0.25585,-1.00258 0.53319,-1.99444 0.83203,-2.97558 0.29882,-0.9811 0.67219,-2.09047 1.12012,-3.32813 0.4479,-1.2376 1.03449,-2.8805 1.75977,-4.92871 -1.62111,0.21358 -3.07163,0.043 -4.35157,-0.51172 -1.87761,-0.80986 -2.64584,-2.55921 -2.30468,-5.24804 0.17056,-1.23694 0.83202,-2.38863 1.98437,-3.45508 0.59765,-0.55465 1.30142,-1.1523 2.11133,-1.79297 1.66405,-1.32287 4.97068,-2.73042 9.91992,-4.22266 5.11976,-1.53641 9.51429,-2.26232 13.18359,-2.17773 0.98174,-0.17052 1.99541,-0.053 3.04102,0.35254 1.04553,0.40565 1.88831,0.94992 2.52832,1.63281 0.63993,0.68299 0.97066,1.42973 0.99219,2.24023 0.0214,0.8106 -0.50167,1.53553 -1.56934,2.17481 -0.51176,0.34119 -0.87439,0.90662 -1.08789,1.69629 -0.21358,0.78975 -0.44828,1.62178 -0.7041,2.49609 -0.2559,0.87439 -0.62895,1.67419 -1.11914,2.39942 -0.49027,0.72529 -1.26924,1.15238 -2.33692,1.28125 -0.55472,0.29821 -1.33336,0.51142 -2.33593,0.63964 -1.00264,0.1283 -1.66377,0.22432 -1.9834,0.28809 -0.31969,0.0638 -0.50101,0.18103 -0.54395,0.35156 -0.76826,2.26175 -1.68557,5.00329 -2.75195,8.22461 -1.06643,3.22138 -2.18622,6.50653 -3.35937,9.85547 z m -8.67188,-16.92773 c -0.0859,3e-5 -0.12892,0.0108 -0.12891,0.0322 -1e-5,0.0215 0.043,0.0323 0.12891,0.0322 z"
         id="path3000"
         style="font-size:64px;font-variant:normal;font-stretch:normal;fill:#ff00ff;font-family:Knewave;-inkscape-font-specification:Knewave" />
      <path
         d="m 389.21066,341.66046 c -1.17321,3.34897 -2.35712,6.55958 -3.55176,9.63184 -1.19468,3.07227 -2.18687,5.4082 -2.97657,7.00781 -0.78973,1.59961 -1.48308,2.69824 -2.08007,3.2959 -0.59702,0.59765 -1.2051,1.00325 -1.82422,1.2168 -0.61916,0.21353 -1.23797,0.29882 -1.85645,0.25585 -0.6185,-0.043 -1.2474,-0.0859 -1.88672,-0.1289 -3.58464,-0.55469 -4.69401,-3.13607 -3.32812,-7.74414 0.89582,-3.66927 1.62108,-6.66633 2.17578,-8.99121 0.55468,-2.32486 1.01334,-4.24478 1.37598,-5.75977 0.36262,-1.51495 0.67186,-2.77374 0.92773,-3.77637 0.25585,-1.00258 0.53319,-1.99444 0.83203,-2.97558 0.29882,-0.9811 0.67219,-2.09047 1.12012,-3.32813 0.4479,-1.2376 1.03449,-2.8805 1.75977,-4.92871 -1.62111,0.21358 -3.07163,0.043 -4.35157,-0.51172 -1.87761,-0.80986 -2.64584,-2.55921 -2.30468,-5.24804 0.17056,-1.23694 0.83202,-2.38863 1.98437,-3.45508 0.59765,-0.55465 1.30142,-1.1523 2.11133,-1.79297 1.66405,-1.32287 4.97068,-2.73042 9.91992,-4.22266 5.11976,-1.53641 9.51429,-2.26232 13.18359,-2.17773 0.98174,-0.17052 1.99541,-0.053 3.04102,0.35254 1.04553,0.40565 1.88831,0.94992 2.52832,1.63281 0.63993,0.68299 0.97066,1.42973 0.99219,2.24023 0.0214,0.8106 -0.50167,1.53553 -1.56934,2.17481 -0.51176,0.34119 -0.87439,0.90662 -1.08789,1.69629 -0.21358,0.78975 -0.44828,1.62178 -0.7041,2.49609 -0.2559,0.87439 -0.62895,1.67419 -1.11914,2.39942 -0.49027,0.72529 -1.26924,1.15238 -2.33692,1.28125 -0.55472,0.29821 -1.33336,0.51142 -2.33593,0.63964 -1.00264,0.1283 -1.66377,0.22432 -1.9834,0.28809 -0.31969,0.0638 -0.50101,0.18103 -0.54395,0.35156 -0.76826,2.26175 -1.68557,5.00329 -2.75195,8.22461 -1.06643,3.22138 -2.18622,6.50653 -3.35937,9.85547 z m -8.67188,-16.92773 c -0.0859,3e-5 -0.12892,0.0108 -0.12891,0.0322 -1e-5,0.0215 0.043,0.0323 0.12891,0.0322 z"
         id="path3002"
         style="font-size:64px;font-variant:normal;font-stretch:normal;fill:#ff00ff;font-family:Knewave;-inkscape-font-specification:Knewave" />
      <path
         d="m 411.63839,350.01202 c 2.47394,0.25652 4.31899,0.38478 5.53516,0.38477 1.21612,10e-6 3.06117,-0.17057 5.53515,-0.51172 0.7682,0.25522 1.21645,0.57488 1.34473,0.95899 0.12823,0.38412 0.17087,0.77897 0.12793,1.18457 -0.043,0.4056 -0.0218,0.80046 0.0635,1.18457 0.0853,0.38411 0.49054,0.70378 1.21583,0.95898 0.38408,0.12761 0.50159,0.50098 0.35253,1.12012 -0.14911,0.61914 -0.501,1.29134 -1.05566,2.0166 -1.40758,1.83463 -3.07164,3.11458 -4.99219,3.83984 -3.07163,0.76823 -5.48244,1.21614 -7.23242,1.34375 -2.90105,0.21354 -6.05795,0.10677 -9.4707,-0.32031 -3.75521,-0.68229 -5.56901,-2.23959 -5.44141,-4.67187 0,-8.95963 1.96289,-17.96223 5.88867,-27.00782 1.27994,-2.94398 2.73046,-6.03707 4.35157,-9.27929 0.34113,-0.68356 0.54393,-1.45179 0.60839,-2.30469 0.0644,-0.85283 0.11783,-1.68486 0.16016,-2.4961 0.0423,-0.81115 0.17024,-1.53674 0.38379,-2.17675 0.21353,-0.63993 0.66145,-1.08752 1.34375,-1.34278 8.87498,-3.54161 15.89385,-4.90685 21.05664,-4.0957 1.79163,0.0417 2.97555,0.64946 3.55176,1.82324 0.57613,1.17388 0.64026,2.48605 0.19238,3.93653 -0.44795,1.45056 -1.32263,2.81579 -2.62402,4.0957 -1.30147,1.27998 -2.9333,2.06905 -4.89551,2.36719 -2.51826,0.72529 -4.05471,1.21618 -4.60938,1.47265 -1.06643,0.51176 -1.834,1.1947 -2.30273,2.04883 -0.59768,0.93753 -1.15269,1.83304 -1.66504,2.68652 -0.51239,0.85355 -0.87469,1.77119 -1.08691,2.75293 l -0.25586,1.40821 c 0.80987,0.38414 1.80141,0.50133 2.97461,0.35156 1.17315,-0.14971 2.26104,-0.29913 3.26367,-0.44824 1.00258,-0.14906 1.81345,-0.15948 2.43262,-0.0312 0.61911,0.12828 0.74736,0.75751 0.38476,1.88769 -0.36266,1.13023 -1.02412,2.39944 -1.98437,3.80762 -0.96032,1.40822 -2.31481,2.43198 -4.06348,3.07129 -1.1094,0.21356 -1.86688,0.37371 -2.27246,0.48047 -0.40562,0.10679 -0.71519,0.18166 -0.92871,0.22461 -0.2982,0.043 -1.15106,0.10679 -2.5586,0.1914 -2.00652,3.41408 -3.22267,6.05926 -3.64843,7.93555 -0.17059,0.76824 -0.0638,1.15235 0.32031,1.15234 z"
         id="path3004"
         style="font-size:64px;font-variant:normal;font-stretch:normal;fill:#ff00ff;font-family:Knewave;-inkscape-font-specification:Knewave" />
      <path
         d="m 435.79464,333.24445 c 0.85416,-2.85805 1.54784,-5.06606 2.08105,-6.62403 0.5332,-1.55791 1.05566,-2.95537 1.56739,-4.19238 0.51171,-1.23694 1.09829,-2.4316 1.75976,-3.58398 0.66145,-1.15231 1.38671,-2.2083 2.17578,-3.16797 0.78905,-0.9596 1.63183,-1.71676 2.52832,-2.27149 0.89647,-0.55464 1.83527,-0.83198 2.81641,-0.83203 0.9811,5e-5 2.00486,0.38416 3.07129,1.15234 1.70701,4.26697 2.75258,7.12569 3.13672,8.57618 0.51169,2.13284 0.98109,5.14065 1.4082,9.02343 0.38409,-0.98174 0.82126,-2.01657 1.31152,-3.10449 0.49021,-1.08786 0.97035,-2.18649 1.44043,-3.2959 1.32289,-2.81637 2.15492,-4.94983 2.4961,-6.40039 0.93877,-2.98563 2.88017,-5.22521 5.82422,-6.71875 2.55985,-1.2799 4.94917,-1.6855 7.16797,-1.21679 0.89578,0.17062 1.52502,0.53325 1.88769,1.08789 0.36259,0.55473 0.36259,1.1309 0,1.72851 -0.36267,0.5977 -0.4906,1.16313 -0.38379,1.69629 0.10673,0.53325 0.20243,1.16248 0.28711,1.8877 0.12756,1.96228 -0.21391,3.70088 -1.02441,5.21582 -0.81059,1.51501 -1.6423,3.39228 -2.49512,5.63183 -0.85291,2.23961 -1.71684,4.61819 -2.5918,7.13574 -0.87504,2.5176 -1.76045,5.07782 -2.65625,7.68067 -0.89587,2.60288 -1.77087,4.97071 -2.625,7.10351 -1.87633,4.90626 -3.41214,7.61589 -4.60742,8.12891 -1.62112,0.98047 -2.81578,1.55599 -3.58398,1.72656 -0.9818,0.17188 -2.36852,0.17188 -4.16016,0 -1.1094,-0.0846 -2.06903,-1.51367 -2.87891,-4.28711 -0.47007,-1.49348 -0.89715,-3.56314 -1.28125,-6.20898 -0.6823,-4.60676 -1.1517,-7.14517 -1.4082,-7.61523 -1.70574,5.54688 -2.91082,9.04558 -3.61523,10.49609 -0.70444,1.45052 -1.23797,2.41048 -1.60059,2.87988 -0.36264,0.46941 -0.79981,1.08822 -1.31152,1.85645 -0.5547,1.53646 -1.87761,2.66731 -3.96875,3.39258 -1.79167,0.68228 -3.41277,0.7884 -4.86328,0.31835 -1.57813,-0.51172 -2.04753,-1.49283 -1.40821,-2.94335 0.47006,-5.11979 2.30469,-13.20507 5.50391,-24.25586 z"
         id="path3006"
         style="font-size:64px;font-variant:normal;font-stretch:normal;fill:#ff00ff;font-family:Knewave;-inkscape-font-specification:Knewave" />
    </g>
  </g>
</svg>
