<?xml version="1.0" encoding="UTF-8" standalone="no"?>
<!-- Created with Inkscape (http://www.inkscape.org/) -->

<svg
   xmlns:dc="http://purl.org/dc/elements/1.1/"
   xmlns:cc="http://creativecommons.org/ns#"
   xmlns:rdf="http://www.w3.org/1999/02/22-rdf-syntax-ns#"
   xmlns:svg="http://www.w3.org/2000/svg"
   xmlns="http://www.w3.org/2000/svg"
   xmlns:sodipodi="http://sodipodi.sourceforge.net/DTD/sodipodi-0.dtd"
   xmlns:inkscape="http://www.inkscape.org/namespaces/inkscape"
   width="58"
   height="58"
   id="svg2"
   version="1.1"
   inkscape:version="0.48.4 r9939"
   sodipodi:docname="icon.svg"
   inkscape:export-filename="D:\Dropbox\docs\proj\Pladereolen\resources\icon.png"
   inkscape:export-xdpi="806.89655"
   inkscape:export-ydpi="806.89655">
  <defs
     id="defs4" />
  <sodipodi:namedview
     id="base"
     pagecolor="#000000"
     bordercolor="#666666"
     borderopacity="1.0"
     inkscape:pageopacity="1"
     inkscape:pageshadow="2"
     inkscape:zoom="4.165493"
     inkscape:cx="-8.792378"
     inkscape:cy="1.2913159"
     inkscape:document-units="px"
     inkscape:current-layer="layer1"
     showgrid="false"
     fit-margin-top="0"
     fit-margin-left="0"
     fit-margin-right="0"
     fit-margin-bottom="0"
     inkscape:window-width="1832"
     inkscape:window-height="1051"
     inkscape:window-x="-9"
     inkscape:window-y="-9"
     inkscape:window-maximized="1" />
  <metadata
     id="metadata7">
    <rdf:RDF>
      <cc:Work
         rdf:about="">
        <dc:format>image/svg+xml</dc:format>
        <dc:type
           rdf:resource="http://purl.org/dc/dcmitype/StillImage" />
        <dc:title></dc:title>
      </cc:Work>
    </rdf:RDF>
  </metadata>
  <g
     inkscape:label="Layer 1"
     inkscape:groupmode="layer"
     id="layer1"
     transform="translate(-299.67322,-297.42364)">
    <g
       style="font-size:40px;font-style:normal;font-weight:normal;line-height:125%;letter-spacing:0px;word-spacing:0px;fill:#000000;fill-opacity:1;stroke:none;font-family:Sans"
       id="text2985"
       transform="matrix(0.81225,0,0,0.81225,68.086432,59.953852)">
      <path
         style="font-size:64px;font-variant:normal;font-stretch:normal;fill:#ff00ff;font-family:Knewave;-inkscape-font-specification:Knewave"
         d="m 311.70266,308.15526 c 2.68748,-3.07287 5.6738,-4.99344 8.95898,-5.76172 2.26169,-0.55464 4.39515,-0.4687 6.40039,0.25781 1.5794,-1.66401 3.62757,-2.26167 6.14453,-1.79297 2.30335,0.42714 4.26624,1.72857 5.88868,3.9043 0.0846,0.29822 0.26558,0.74614 0.54296,1.34375 0.2773,0.5977 0.54423,1.25916 0.80079,1.98438 1.87755,4.3516 2.02664,10.06904 0.44726,17.15234 -1.96228,8.78908 -5.43949,16.23438 -10.43164,22.33594 -1.53649,1.8763 -3.26435,3.43359 -5.18359,4.67187 -3.07295,2.34635 -6.74221,3.39127 -11.00782,3.13477 -2.64585,-0.12761 -4.86459,-0.78842 -6.65625,-1.98242 -7.1263,-3.54167 -9.45182,-10.92317 -6.97656,-22.14453 2.04817,-9.21612 5.73892,-16.91729 11.07227,-23.10352 z"
         id="path3012"
         inkscape:connector-curvature="0" />
    </g>
  </g>
</svg>
